<?xml version="1.0" standalone="no"?>
<!DOCTYPE svg PUBLIC "-//W3C//DTD SVG 20010904//EN"
 "http://www.w3.org/TR/2001/REC-SVG-20010904/DTD/svg10.dtd">
<svg version="1.0" xmlns="http://www.w3.org/2000/svg"
 width="128.000000pt" height="128.000000pt" viewBox="0 0 128.000000 128.000000"
 preserveAspectRatio="xMidYMid meet">
<metadata>
Created by potrace 1.14, written by Peter Selinger 2001-2017
</metadata>
<g transform="translate(0.000000,128.000000) scale(0.100000,-0.100000)"
fill="#000000" stroke="none">
<path d="M640 1121 c0 -24 -41 -103 -84 -161 -79 -109 -267 -275 -349 -307
l-39 -16 49 -24 c146 -74 355 -289 409 -420 l21 -53 12 39 c36 121 292 386
424 438 l39 16 -49 24 c-91 46 -256 191 -328 288 -16 22 -32 42 -35 45 -10 10
-34 57 -51 100 -10 25 -18 39 -19 31z"/>
</g>
</svg>
